<svg width="32" height="32" viewBox="0 0 32 32" fill="none" xmlns="http://www.w3.org/2000/svg">
<path fill-rule="evenodd" clip-rule="evenodd" d="M14.198 2.21028C14.746 1.89434 15.3674 1.72803 16 1.72803C16.6325 1.72803 17.2539 1.89432 17.8019 2.21022C17.8026 2.21061 17.8032 2.211 17.8039 2.21139L27.1373 7.54471C27.6852 7.86106 28.1403 8.31592 28.4569 8.86368C28.7735 9.41144 28.9405 10.0328 28.9412 10.6655L28.9412 10.6665V21.3331L28.9412 21.3341C28.9405 21.9668 28.7735 22.5882 28.4569 23.1359C28.1403 23.6837 27.6852 24.1385 27.1373 24.4549L27.1336 24.457L17.8039 29.7882C17.8033 29.7886 17.8027 29.7889 17.8022 29.7892C17.2541 30.1052 16.6326 30.2716 16 30.2716C15.3673 30.2716 14.7458 30.1052 14.1977 29.7892C14.1972 29.7889 14.1966 29.7885 14.1961 29.7882L4.86638 24.457L4.86274 24.4549C4.31483 24.1385 3.85973 23.6837 3.54311 23.1359C3.22648 22.5882 3.05947 21.9668 3.05882 21.3341V10.6655C3.05947 10.0328 3.22648 9.41144 3.54311 8.86368C3.85973 8.31592 4.31483 7.86106 4.86274 7.54472L4.86637 7.54262L14.1961 2.21139C14.1967 2.21102 14.1974 2.21065 14.198 2.21028ZM16 3.61038C15.6971 3.61038 15.3996 3.69011 15.1373 3.84155L15.1336 3.84365L5.80392 9.17489C5.80339 9.17519 5.80286 9.1755 5.80232 9.17581C5.54099 9.32706 5.32391 9.54425 5.17279 9.80569C5.02143 10.0675 4.94156 10.3646 4.94118 10.667V21.3326C4.94156 21.635 5.02143 21.9321 5.17279 22.1939C5.32389 22.4553 5.54092 22.6725 5.8022 22.8237C5.80278 22.8241 5.80335 22.8244 5.80392 22.8247L15.1373 28.158C15.3996 28.3095 15.6971 28.3892 16 28.3892C16.3029 28.3892 16.6004 28.3095 16.8627 28.1581L16.8664 28.156L26.1961 22.8247C26.1967 22.8244 26.1972 22.8241 26.1978 22.8237C26.4591 22.6725 26.6761 22.4553 26.8272 22.1939C26.9786 21.9319 27.0585 21.6348 27.0588 21.3322V10.6674C27.0585 10.3648 26.9786 10.0677 26.8272 9.80569C26.6761 9.54426 26.459 9.32707 26.1977 9.17581C26.1971 9.1755 26.1966 9.17519 26.1961 9.17489L16.8627 3.84156C16.6004 3.69012 16.3029 3.61038 16 3.61038Z" fill="#6D77FA"/>
<path fill-rule="evenodd" clip-rule="evenodd" d="M9.18507 5.14236C9.44511 4.69228 10.0208 4.53823 10.4708 4.79828L16 7.9929L21.5291 4.79828C21.9792 4.53823 22.5549 4.69228 22.8149 5.14236C23.075 5.59243 22.9209 6.1681 22.4708 6.42814L16.4708 9.89481C16.1795 10.0631 15.8205 10.0631 15.5291 9.89481L9.52915 6.42814C9.07908 6.1681 8.92502 5.59243 9.18507 5.14236Z" fill="#6D77FA"/>
<path fill-rule="evenodd" clip-rule="evenodd" d="M3.18507 15.5291C3.44511 15.079 4.02077 14.925 4.47085 15.185L10.4708 18.6517C10.7619 18.8198 10.9412 19.1305 10.9412 19.4666V26.3866C10.9412 26.9064 10.5198 27.3278 10 27.3278C9.4802 27.3278 9.05882 26.9064 9.05882 26.3866V20.0098L3.52915 16.8149C3.07908 16.5548 2.92502 15.9792 3.18507 15.5291Z" fill="#6D77FA"/>
<path fill-rule="evenodd" clip-rule="evenodd" d="M28.8149 15.5291C29.075 15.9792 28.9209 16.5548 28.4708 16.8149L22.9412 20.0098V26.3866C22.9412 26.9064 22.5198 27.3278 22 27.3278C21.4802 27.3278 21.0588 26.9064 21.0588 26.3866V19.4666C21.0588 19.1305 21.2381 18.8198 21.5292 18.6517L27.5292 15.185C27.9792 14.925 28.5549 15.079 28.8149 15.5291Z" fill="#6D77FA"/>
<path fill-rule="evenodd" clip-rule="evenodd" d="M3.54531 8.80893C3.80559 8.35899 4.38133 8.20524 4.83127 8.46551L16 14.9262L27.1687 8.46551C27.6187 8.20524 28.1944 8.35899 28.4547 8.80893C28.715 9.25887 28.5612 9.83461 28.1113 10.0949L16.4713 16.8282C16.1797 16.9969 15.8203 16.9969 15.5287 16.8282L3.88873 10.0949C3.43879 9.83461 3.28504 9.25887 3.54531 8.80893Z" fill="#6D77FA"/>
<path fill-rule="evenodd" clip-rule="evenodd" d="M16 15.0586C16.5198 15.0586 16.9412 15.48 16.9412 15.9998V29.4398C16.9412 29.9596 16.5198 30.3809 16 30.3809C15.4802 30.3809 15.0588 29.9596 15.0588 29.4398V15.9998C15.0588 15.48 15.4802 15.0586 16 15.0586Z" fill="#6D77FA"/>
</svg>
