<svg width="24" height="24" viewBox="0 0 24 24" fill="none" xmlns="http://www.w3.org/2000/svg">
<path d="M7.7498 5.49002C7.7498 4.99002 7.3498 4.59002 6.8498 4.59002H2.1998C1.6998 4.59002 1.2998 4.99002 1.2998 5.49002C1.2998 5.99002 1.6998 6.39002 2.1998 6.39002H6.8498C7.3398 6.39002 7.7498 5.98002 7.7498 5.49002ZM15.2498 12C15.2498 12.5 15.6498 12.9 16.1498 12.9H20.7998C21.2998 12.9 21.6998 12.5 21.6998 12C21.6998 11.5 21.2998 11.1 20.7998 11.1H16.1498C15.6598 11.1 15.2498 11.5 15.2498 12ZM7.7498 18.51C7.7498 18.01 7.3498 17.61 6.8498 17.61H2.1998C1.6998 17.61 1.2998 18.01 1.2998 18.51C1.2998 19.01 1.6998 19.41 2.1998 19.41H6.8498C7.3398 19.41 7.7498 19.01 7.7498 18.51ZM9.6718 16.65V20.37C9.6718 20.87 10.0718 21.27 10.5718 21.27C11.0718 21.27 11.4718 20.87 11.4718 20.37V19.41H20.8018C21.3018 19.41 21.7018 19.01 21.7018 18.51C21.7018 18.01 21.3018 17.61 20.8018 17.61H11.4718V16.65C11.4718 16.15 11.0718 15.75 10.5718 15.75C10.0718 15.75 9.6718 16.16 9.6718 16.65ZM9.6718 3.63002L9.6718 7.35002C9.6718 7.85002 10.0718 8.25002 10.5718 8.25002C11.0718 8.25002 11.4718 7.85002 11.4718 7.35002L11.4718 6.39002L20.8018 6.39002C21.3018 6.39002 21.7018 5.99002 21.7018 5.49002C21.7018 4.99002 21.3018 4.59002 20.8018 4.59002H11.4718V3.63002C11.4718 3.13002 11.0718 2.73002 10.5718 2.73002C10.0718 2.73002 9.6718 3.13002 9.6718 3.63002ZM11.5298 10.14V11.1H2.1998C1.6998 11.1 1.2998 11.5 1.2998 12C1.2998 12.5 1.6998 12.9 2.1998 12.9H11.5298V13.86C11.5298 14.36 11.9298 14.76 12.4298 14.76C12.9298 14.76 13.3298 14.36 13.3298 13.86V10.14C13.3298 9.64002 12.9298 9.24002 12.4298 9.24002C11.9298 9.24002 11.5298 9.64002 11.5298 10.14Z" fill="#212B36"/>
</svg>
