<svg width="31" height="31" viewBox="0 0 31 31" fill="none" xmlns="http://www.w3.org/2000/svg">
<path fill-rule="evenodd" clip-rule="evenodd" d="M15.5128 0.322266C6.97056 0.322266 0.0650024 7.27873 0.0650024 15.8848C0.0650024 22.7641 4.48963 28.5873 10.6278 30.6483C11.3952 30.8033 11.6763 30.3135 11.6763 29.9015C11.6763 29.5407 11.651 28.304 11.651 27.0155C7.35379 27.9432 6.45894 25.1603 6.45894 25.1603C5.76835 23.3567 4.74512 22.8931 4.74512 22.8931C3.33865 21.9398 4.84757 21.9398 4.84757 21.9398C6.40771 22.0429 7.22636 23.5372 7.22636 23.5372C8.60722 25.9075 10.8323 25.2378 11.7275 24.8255C11.8553 23.8206 12.2647 23.1249 12.6995 22.7385C9.2722 22.3777 5.66622 21.038 5.66622 15.0602C5.66622 13.3596 6.27965 11.9683 7.25166 10.8863C7.0983 10.4999 6.56107 8.90211 7.40533 6.76363C7.40533 6.76363 8.70967 6.3513 11.6507 8.36109C12.9098 8.02043 14.2084 7.84714 15.5128 7.84568C16.8171 7.84568 18.1467 8.02623 19.3746 8.36109C22.3159 6.3513 23.6202 6.76363 23.6202 6.76363C24.4645 8.90211 23.9269 10.4999 23.7736 10.8863C24.7712 11.9683 25.3593 13.3596 25.3593 15.0602C25.3593 21.038 21.7534 22.3518 18.3004 22.7385C18.8633 23.228 19.3489 24.1554 19.3489 25.6242C19.3489 27.7111 19.3237 29.386 19.3237 29.9011C19.3237 30.3135 19.6051 30.8033 20.3722 30.6486C26.5103 28.587 30.9349 22.7641 30.9349 15.8848C30.9602 7.27873 24.0294 0.322266 15.5128 0.322266Z" fill="#6D77FA"/>
</svg>
