<svg width="31" height="31" viewBox="0 0 31 31" fill="none" xmlns="http://www.w3.org/2000/svg">
<path d="M29.9732 14.0765C29.9355 13.7016 29.7593 13.3542 29.479 13.1023C29.1988 12.8503 28.8347 12.712 28.4579 12.7143H16.9017C16.0599 12.7143 15.3711 13.403 15.3711 14.2449V16.8622C15.3711 17.7041 16.0599 18.3928 16.9017 18.3928H23.8048C23.6364 19.801 22.7181 21.9285 20.6824 23.352C19.3813 24.2551 17.6517 24.8826 15.3711 24.8826C15.264 24.8826 15.1721 24.8826 15.065 24.8673C11.1619 24.7449 7.85582 22.1275 6.66194 18.5306C6.33087 17.5543 6.16029 16.5308 6.15684 15.5C6.15684 14.4438 6.34051 13.4183 6.64664 12.4694C6.73847 12.1938 6.84562 11.9183 6.96806 11.6428C8.37623 8.47446 11.4528 6.23977 15.065 6.13262C15.1568 6.11732 15.264 6.11732 15.3711 6.11732C17.5599 6.11732 19.1977 6.8367 20.3456 7.63262C20.9426 8.04589 21.7385 7.95405 22.2589 7.44895L24.3864 5.36732C25.0599 4.70915 24.9987 3.59181 24.2334 3.04079C21.7997 1.24997 18.8303 0.193848 15.3711 0.193848C15.264 0.193848 15.1721 0.193848 15.065 0.209154C12.2814 0.258462 9.56437 1.06911 7.20879 2.55315C4.85322 4.03719 2.94901 6.13795 1.70276 8.62752C0.661941 10.7092 0.0650024 13.0357 0.0650024 15.5C0.0650024 17.9643 0.661941 20.2908 1.70276 22.3724H1.71806C2.96257 24.8601 4.86426 26.9598 7.21702 28.4437C9.56977 29.9277 12.2838 30.7394 15.065 30.7908C15.1721 30.8061 15.264 30.8061 15.3711 30.8061C19.5038 30.8061 22.9783 29.4438 25.5038 27.102C28.3966 24.4234 30.065 20.5051 30.065 15.8367C30.065 15.1785 30.0344 14.6122 29.9732 14.0765Z" fill="#6D77FA"/>
</svg>
