<svg width="28" height="28" viewBox="0 0 28 28" fill="none" xmlns="http://www.w3.org/2000/svg">
<path d="M17.4376 26.3177H10.5626C4.34071 26.3177 1.68237 23.6593 1.68237 17.4375V10.5625C1.68237 4.34058 4.34071 1.68225 10.5626 1.68225H17.4376C23.6595 1.68225 26.3178 4.34058 26.3178 10.5625V17.4375C26.3178 23.6593 23.6595 26.3177 17.4376 26.3177ZM10.5626 3.401C5.28029 3.401 3.40112 5.28017 3.40112 10.5625V17.4375C3.40112 22.7197 5.28029 24.5989 10.5626 24.5989H17.4376C22.7199 24.5989 24.599 22.7197 24.599 17.4375V10.5625C24.599 5.28017 22.7199 3.401 17.4376 3.401H10.5626Z" fill="#212B36"/>
<path d="M25.4582 10.849H2.57593C2.10614 10.849 1.71655 10.4594 1.71655 9.98962C1.71655 9.51983 2.10614 9.13025 2.57593 9.13025H25.4582C25.928 9.13025 26.3176 9.51983 26.3176 9.98962C26.3176 10.4594 25.928 10.849 25.4582 10.849ZM25.4582 18.8698H2.57593C2.10614 18.8698 1.71655 18.4802 1.71655 18.0105C1.71655 17.5407 2.10614 17.1511 2.57593 17.1511H25.4582C25.928 17.1511 26.3176 17.5407 26.3176 18.0105C26.3176 18.4802 25.928 18.8698 25.4582 18.8698Z" fill="#212B36"/>
<path d="M10.001 26.3085C9.53118 26.3085 9.1416 25.919 9.1416 25.4492V2.55542C9.1416 2.08563 9.53118 1.69604 10.001 1.69604C10.4708 1.69604 10.8604 2.08563 10.8604 2.55542V25.4377C10.8604 25.919 10.4822 26.3085 10.001 26.3085ZM18.0218 26.3085C17.552 26.3085 17.1624 25.919 17.1624 25.4492V2.55542C17.1624 2.08563 17.552 1.69604 18.0218 1.69604C18.4916 1.69604 18.8812 2.08563 18.8812 2.55542V25.4377C18.8812 25.919 18.5031 26.3085 18.0218 26.3085Z" fill="#212B36"/>
</svg>
