<svg width="30" height="30" viewBox="0 0 30 30" fill="none" xmlns="http://www.w3.org/2000/svg">
<path d="M26.9113 19.9122C26.7113 19.5747 26.1488 19.0497 24.7488 19.2997C23.9738 19.4372 23.1863 19.4997 22.3988 19.4622C20.9943 19.3985 19.6168 19.0537 18.3479 18.4483C17.0789 17.8428 15.9444 16.9889 15.0113 15.9372C13.3863 14.1247 12.3863 11.7622 12.3738 9.21222C12.3738 7.78722 12.6488 6.41222 13.2113 5.11222C13.7613 3.84972 13.3738 3.18722 13.0988 2.91222C12.8113 2.62472 12.1363 2.22472 10.8113 2.77472C5.69878 4.92472 2.53628 10.0497 2.91128 15.5372C3.28628 20.6997 6.91128 25.1122 11.7113 26.7747C12.875 27.1807 14.0923 27.4124 15.3238 27.4622C15.5238 27.4747 15.7238 27.4872 15.9238 27.4872C20.1113 27.4872 24.0363 25.5122 26.5113 22.1497C27.3488 20.9872 27.1238 20.2497 26.9113 19.9122Z" fill="#212B36"/>
</svg>
