<svg width="25" height="16" viewBox="0 0 25 16" fill="none" xmlns="http://www.w3.org/2000/svg">
<path d="M24.0625 2.6875H1.5625C1.05 2.6875 0.625 2.2625 0.625 1.75C0.625 1.2375 1.05 0.8125 1.5625 0.8125H24.0625C24.575 0.8125 25 1.2375 25 1.75C25 2.2625 24.575 2.6875 24.0625 2.6875ZM20.3125 8.9375H5.3125C4.8 8.9375 4.375 8.5125 4.375 8C4.375 7.4875 4.8 7.0625 5.3125 7.0625H20.3125C20.825 7.0625 21.25 7.4875 21.25 8C21.25 8.5125 20.825 8.9375 20.3125 8.9375ZM15.3125 15.1875H10.3125C9.8 15.1875 9.375 14.7625 9.375 14.25C9.375 13.7375 9.8 13.3125 10.3125 13.3125H15.3125C15.825 13.3125 16.25 13.7375 16.25 14.25C16.25 14.7625 15.825 15.1875 15.3125 15.1875Z" fill="#212B36"/>
</svg>
