<svg width="32" height="31" viewBox="0 0 32 31" fill="none" xmlns="http://www.w3.org/2000/svg">
<path fill-rule="evenodd" clip-rule="evenodd" d="M31.935 15.5C31.935 24.0604 24.9954 31 16.435 31C7.87458 31 0.934998 24.0604 0.934998 15.5C0.934998 6.93959 7.87458 0 16.435 0C24.9954 0 31.935 6.93959 31.935 15.5ZM17.3317 11.6547L7.14018 15.8982C5.34683 16.6055 6.3966 17.2685 6.3966 17.2685C6.3966 17.2685 7.92751 17.799 9.23972 18.1968C10.5519 18.5947 11.2518 18.1526 11.2518 18.1526L17.4192 13.9533C19.6062 12.4503 19.0813 13.688 18.5564 14.2185C17.4192 15.3678 15.5383 17.1801 13.9637 18.6389C13.2638 19.2577 13.6138 19.7882 13.9199 20.0534C14.81 20.8145 16.9059 22.1984 17.8587 22.8276C18.1232 23.0023 18.2997 23.1188 18.3377 23.1476C18.5564 23.3245 19.7811 24.1201 20.5247 23.9433C21.2683 23.7665 21.3558 22.7498 21.3558 22.7498L22.4493 15.8098C22.5465 15.1592 22.6437 14.5222 22.7343 13.9282C22.97 12.3833 23.1613 11.1292 23.1929 10.6822C23.3241 9.17924 21.7495 9.79809 21.7495 9.79809C21.7495 9.79809 18.3377 11.2126 17.3317 11.6547Z" fill="#6D77FA"/>
</svg>
