<svg width="40" height="40" viewBox="0 0 40 40" fill="none" xmlns="http://www.w3.org/2000/svg">
<path d="M31.9113 24.9123C31.7113 24.5748 31.1488 24.0498 29.7488 24.2998C28.9738 24.4373 28.1863 24.4998 27.3988 24.4623C25.9943 24.3986 24.6168 24.0539 23.3479 23.4484C22.0789 22.8429 20.9444 21.9891 20.0113 20.9373C18.3863 19.1248 17.3863 16.7623 17.3738 14.2123C17.3738 12.7873 17.6488 11.4123 18.2113 10.1123C18.7613 8.84984 18.3738 8.18734 18.0988 7.91234C17.8113 7.62484 17.1363 7.22484 15.8113 7.77484C10.6988 9.92484 7.53628 15.0498 7.91128 20.5373C8.28628 25.6998 11.9113 30.1123 16.7113 31.7748C17.875 32.1808 19.0923 32.4125 20.3238 32.4623C20.5238 32.4748 20.7238 32.4873 20.9238 32.4873C25.1113 32.4873 29.0363 30.5123 31.5113 27.1498C32.3488 25.9873 32.1238 25.2498 31.9113 24.9123Z" fill="#212B36"/>
</svg>
