<svg width="50" height="50" viewBox="0 0 50 50" fill="none" xmlns="http://www.w3.org/2000/svg">
<path fill-rule="evenodd" clip-rule="evenodd" d="M22.1844 3.4539C23.0406 2.96025 24.0116 2.70038 25 2.70038C25.9883 2.70038 26.9593 2.96022 27.8155 3.45381C27.8165 3.45442 27.8176 3.45502 27.8186 3.45563L42.402 11.7889C43.2581 12.2832 43.9692 12.994 44.4639 13.8498C44.9586 14.7057 45.2196 15.6766 45.2206 16.6652L45.2206 16.6667V33.3334L45.2206 33.3349C45.2196 34.3234 44.9586 35.2943 44.4639 36.1502C43.9692 37.0061 43.2581 37.7168 42.402 38.2111L42.3963 38.2144L27.8186 46.5444C27.8177 46.545 27.8168 46.5455 27.8159 46.546C26.9596 47.0398 25.9885 47.2997 25 47.2997C24.0114 47.2997 23.0403 47.0397 22.184 46.5459C22.1831 46.5454 22.1822 46.5449 22.1814 46.5444L7.60372 38.2144L7.59804 38.2111C6.74192 37.7168 6.03083 37.0061 5.5361 36.1502C5.04138 35.2943 4.78043 34.3234 4.77941 33.3349V16.6652C4.78043 15.6766 5.04138 14.7057 5.5361 13.8498C6.03083 12.994 6.74192 12.2832 7.59804 11.789L7.60371 11.7857L22.1814 3.45563C22.1824 3.45505 22.1834 3.45448 22.1844 3.4539ZM25 5.64155C24.5267 5.64155 24.0618 5.76613 23.652 6.00276L23.6463 6.00603L9.06862 14.3361C9.06779 14.3366 9.06696 14.3371 9.06613 14.3375C8.65779 14.5739 8.31861 14.9132 8.08248 15.3217C7.84599 15.7309 7.72119 16.195 7.72059 16.6675V33.3325C7.72119 33.8051 7.84599 34.2692 8.08248 34.6783C8.31857 35.0868 8.65769 35.4261 9.06594 35.6624C9.06684 35.6629 9.06773 35.6634 9.06862 35.664L23.652 43.9973C24.0618 44.2339 24.5267 44.3585 25 44.3585C25.4733 44.3585 25.9382 44.2339 26.348 43.9973L26.3537 43.994L40.9314 35.664C40.9323 35.6634 40.9332 35.6629 40.9341 35.6624C41.3423 35.4261 41.6814 35.0868 41.9175 34.6783C42.1541 34.269 42.2789 33.8046 42.2794 33.3319V16.6682C42.2789 16.1954 42.1541 15.7311 41.9175 15.3217C41.6814 14.9132 41.3422 14.5739 40.9339 14.3375C40.933 14.3371 40.9322 14.3366 40.9314 14.3361L26.348 6.00277C25.9382 5.76614 25.4733 5.64155 25 5.64155Z" fill="#6D77FA"/>
<path fill-rule="evenodd" clip-rule="evenodd" d="M14.3517 8.03512C14.758 7.33188 15.6575 7.09117 16.3607 7.49749L25 12.4891L33.6393 7.49749C34.3425 7.09117 35.242 7.33188 35.6483 8.03512C36.0546 8.73836 35.8139 9.63784 35.1107 10.0442L25.7357 15.4608C25.2805 15.7238 24.7195 15.7238 24.2643 15.4608L14.8893 10.0442C14.1861 9.63784 13.9454 8.73836 14.3517 8.03512Z" fill="#6D77FA"/>
<path fill-rule="evenodd" clip-rule="evenodd" d="M4.97667 24.2643C5.38299 23.5611 6.28246 23.3204 6.9857 23.7267L16.3607 29.1433C16.8155 29.4061 17.0956 29.8915 17.0956 30.4167V41.2292C17.0956 42.0414 16.4372 42.6998 15.625 42.6998C14.8128 42.6998 14.1544 42.0414 14.1544 41.2292V31.2654L5.5143 26.2733C4.81106 25.867 4.57035 24.9675 4.97667 24.2643Z" fill="#6D77FA"/>
<path fill-rule="evenodd" clip-rule="evenodd" d="M45.0233 24.2643C45.4296 24.9675 45.1889 25.867 44.4857 26.2733L35.8456 31.2654V41.2292C35.8456 42.0414 35.1872 42.6998 34.375 42.6998C33.5628 42.6998 32.9044 42.0414 32.9044 41.2292V30.4167C32.9044 29.8915 33.1845 29.4061 33.6393 29.1433L43.0143 23.7267C43.7175 23.3204 44.617 23.5611 45.0233 24.2643Z" fill="#6D77FA"/>
<path fill-rule="evenodd" clip-rule="evenodd" d="M5.53955 13.7636C5.94623 13.0606 6.84583 12.8204 7.54886 13.2271L25 23.3219L42.4511 13.2271C43.1542 12.8204 44.0538 13.0606 44.4604 13.7636C44.8671 14.4667 44.6269 15.3663 43.9239 15.773L25.7364 26.2938C25.2808 26.5573 24.7192 26.5573 24.2636 26.2938L6.07614 15.773C5.37311 15.3663 5.13287 14.4667 5.53955 13.7636Z" fill="#6D77FA"/>
<path fill-rule="evenodd" clip-rule="evenodd" d="M25 23.5294C25.8122 23.5294 26.4706 24.1878 26.4706 25V46C26.4706 46.8122 25.8122 47.4706 25 47.4706C24.1878 47.4706 23.5294 46.8122 23.5294 46V25C23.5294 24.1878 24.1878 23.5294 25 23.5294Z" fill="#6D77FA"/>
</svg>
