<svg width="40" height="40" viewBox="0 0 40 40" fill="none" xmlns="http://www.w3.org/2000/svg">
<g clip-path="url(#clip0_54_1304)">
<path d="M20 26.25C23.4518 26.25 26.25 23.4518 26.25 20C26.25 16.5482 23.4518 13.75 20 13.75C16.5482 13.75 13.75 16.5482 13.75 20C13.75 23.4518 16.5482 26.25 20 26.25Z" fill="#9E9D9D" stroke="#9E9D9D" stroke-width="2" stroke-linecap="round" stroke-linejoin="round"/>
<path d="M20 6.25V8.75" stroke="#9E9D9D" stroke-width="2" stroke-linecap="round" stroke-linejoin="round"/>
<path d="M20 31.25V33.75" stroke="#9E9D9D" stroke-width="2" stroke-linecap="round" stroke-linejoin="round"/>
<path d="M10.275 10.2753L12.05 12.0503" stroke="#9E9D9D" stroke-width="2" stroke-linecap="round" stroke-linejoin="round"/>
<path d="M27.95 27.9498L29.725 29.7248" stroke="#9E9D9D" stroke-width="2" stroke-linecap="round" stroke-linejoin="round"/>
<path d="M6.25 20H8.75" stroke="#9E9D9D" stroke-width="2" stroke-linecap="round" stroke-linejoin="round"/>
<path d="M31.25 20H33.75" stroke="#9E9D9D" stroke-width="2" stroke-linecap="round" stroke-linejoin="round"/>
<path d="M10.275 29.7248L12.05 27.9498" stroke="#9E9D9D" stroke-width="2" stroke-linecap="round" stroke-linejoin="round"/>
<path d="M27.95 12.0503L29.725 10.2753" stroke="#9E9D9D" stroke-width="2" stroke-linecap="round" stroke-linejoin="round"/>
</g>
<defs>
<clipPath id="clip0_54_1304">
<rect width="30" height="30" fill="white" transform="translate(5 5)"/>
</clipPath>
</defs>
</svg>
