<svg width="18" height="18" viewBox="0 0 18 18" fill="none" xmlns="http://www.w3.org/2000/svg">
<g clip-path="url(#clip0_132_1654)">
<path d="M8.625 16.3125C4.3875 16.3125 0.9375 12.8625 0.9375 8.625C0.9375 4.3875 4.3875 0.9375 8.625 0.9375C12.8625 0.9375 16.3125 4.3875 16.3125 8.625C16.3125 12.8625 12.8625 16.3125 8.625 16.3125ZM8.625 2.0625C5.0025 2.0625 2.0625 5.01 2.0625 8.625C2.0625 12.24 5.0025 15.1875 8.625 15.1875C12.2475 15.1875 15.1875 12.24 15.1875 8.625C15.1875 5.01 12.2475 2.0625 8.625 2.0625ZM16.5 17.0632C16.3575 17.0632 16.215 17.0107 16.1025 16.8983L14.6025 15.3983C14.4979 15.2924 14.4392 15.1496 14.4392 15.0007C14.4392 14.8519 14.4979 14.7091 14.6025 14.6033C14.82 14.3858 15.18 14.3858 15.3975 14.6033L16.8975 16.1033C17.115 16.3208 17.115 16.6807 16.8975 16.8983C16.785 17.0107 16.6425 17.0632 16.5 17.0632Z" fill="#9E9D9D"/>
</g>
<defs>
<clipPath id="clip0_132_1654">
<rect width="18" height="18" fill="white"/>
</clipPath>
</defs>
</svg>
