<svg width="30" height="30" viewBox="0 0 30 30" fill="none" xmlns="http://www.w3.org/2000/svg">
<path d="M7.0656 24.0054C7.05577 23.9976 7.04637 23.9902 7.0375 23.9831V23.9563L6.87687 23.8078C4.49849 21.6096 3 18.4779 3 15C3 8.38864 8.38864 3 15 3C21.6114 3 27 8.38864 27 15C27 18.4777 25.5017 21.609 23.1116 23.807L22.7278 24.1599L22.7293 24.1614C22.6624 24.2119 22.5954 24.2709 22.5569 24.3048C22.5448 24.3156 22.5355 24.3238 22.5299 24.3284C22.3199 24.5034 22.0949 24.6695 21.8508 24.8404L21.8508 24.8404L21.8469 24.8431C21.7956 24.8797 21.7616 24.9054 21.7353 24.9251C21.6964 24.9544 21.6746 24.9708 21.6394 24.9909L21.627 24.998L21.615 25.0058C21.4579 25.1079 21.3093 25.1945 21.1495 25.2877C21.0652 25.3368 20.9778 25.3878 20.8845 25.4437C20.8429 25.4677 20.7995 25.4948 20.7659 25.5159C20.7568 25.5216 20.7484 25.5268 20.741 25.5314C20.6989 25.5576 20.6677 25.5759 20.6389 25.5903L20.6389 25.5902L20.6305 25.5946C20.379 25.7263 20.1282 25.8457 19.878 25.9529L19.8645 25.9587L19.8514 25.9653C19.7466 26.0177 19.6705 26.0552 19.5994 26.0818L19.5886 26.0859L19.578 26.0904C19.4191 26.1585 19.2632 26.2119 19.0894 26.2715C18.9993 26.3023 18.9045 26.3348 18.8019 26.3719C18.6836 26.4033 18.5712 26.4455 18.4841 26.4782L18.4802 26.4797C18.296 26.5433 18.1084 26.5877 17.8957 26.638C17.8187 26.6562 17.7384 26.6752 17.6537 26.6962C17.5794 26.7079 17.5156 26.7255 17.4765 26.7363L17.4749 26.7368C17.4487 26.744 17.4346 26.7479 17.4206 26.7514C17.4087 26.7543 17.4042 26.755 17.4042 26.755L17.3872 26.7575L17.3702 26.7611C17.0425 26.8313 16.7112 26.8789 16.3611 26.9152L16.3257 26.9188L16.2912 26.9274L16.2609 26.9349C16.2558 26.9361 16.252 26.9369 16.2491 26.9375H16.2398L16.2172 26.9396C15.8152 26.9761 15.4059 27 15 27C14.6068 27 14.2102 26.9776 13.8077 26.9428C13.7612 26.9317 13.6883 26.9166 13.6077 26.9132C13.2645 26.8772 12.9391 26.8301 12.6173 26.7611L12.596 26.7566L12.5745 26.7539C12.5181 26.7468 12.4658 26.7327 12.3749 26.7067L12.3668 26.7044L12.3588 26.7024C12.0573 26.6271 11.7667 26.5543 11.4775 26.47L11.4682 26.4673L11.4588 26.4649C11.3912 26.448 11.3183 26.4213 11.2131 26.3818L11.2012 26.3774L11.1891 26.3735C10.9272 26.2902 10.6648 26.1948 10.4018 26.0872L10.395 26.0844L10.3881 26.0818C10.317 26.0552 10.2409 26.0177 10.1361 25.9653L10.1193 25.9569L10.1018 25.9497C9.84511 25.8447 9.60112 25.7285 9.36961 25.6014C9.33226 25.58 9.29122 25.5554 9.24475 25.5275L9.24217 25.526C9.19698 25.4988 9.14637 25.4685 9.09807 25.4409L9.09012 25.4363L9.082 25.4321C8.83713 25.3038 8.60468 25.1643 8.38444 25.0138C8.38374 25.0133 8.38304 25.0128 8.38234 25.0123L8.1417 24.8439C8.08358 24.8011 8.0267 24.7596 7.97099 24.7191C7.78781 24.5857 7.61739 24.4616 7.45759 24.3284L7.43707 24.3113L7.41485 24.2965C7.38957 24.2796 7.37764 24.2689 7.35303 24.2468C7.33279 24.2285 7.30397 24.2026 7.25209 24.1592C7.18881 24.1028 7.12052 24.0488 7.0656 24.0054ZM20.8962 21.6276L20.8998 21.63C21.4077 21.9647 21.8294 22.3537 22.1565 22.7709L22.5069 23.218L22.9059 22.8137C24.8937 20.7998 26.125 18.0378 26.125 15C26.125 8.86136 21.1386 3.875 15 3.875C8.86136 3.875 3.875 8.86136 3.875 15V15.0001C3.87584 17.9277 5.03319 20.7364 7.09505 22.8146L7.48747 23.2102L7.83838 22.7774C8.18391 22.3512 8.59649 21.9619 9.10016 21.63L9.10235 21.6285C10.7098 20.5569 12.8485 20.0062 15.0094 20.0062C17.1704 20.0062 19.302 20.5569 20.8962 21.6276Z" fill="#212B36" stroke="#212B36"/>
<path d="M15 9.1626C12.6886 9.1626 10.8125 11.0387 10.8125 13.3501C10.8125 15.6103 12.5767 17.4543 14.9448 17.5251H15.154C16.2348 17.4875 17.2591 17.0323 18.0113 16.2551C18.7654 15.476 19.1872 14.4344 19.1875 13.3501L15 9.1626ZM15 9.1626C17.3113 9.1626 19.1874 11.0387 19.1875 13.35L15 9.1626Z" fill="#212B36" stroke="#212B36"/>
</svg>
