<svg width="30" height="30" viewBox="0 0 30 30" fill="none" xmlns="http://www.w3.org/2000/svg">
<path fill-rule="evenodd" clip-rule="evenodd" d="M13.3106 2.07223C13.8244 1.77604 14.407 1.62012 15 1.62012C15.593 1.62012 16.1756 1.77602 16.6893 2.07218C16.6899 2.07254 16.6905 2.0729 16.6912 2.07327L25.4412 7.07326C25.9549 7.36983 26.3815 7.79627 26.6783 8.30979C26.9752 8.82331 27.1317 9.40586 27.1324 9.999L27.1324 9.99991V19.9999L27.1324 20.0008C27.1317 20.594 26.9752 21.1765 26.6783 21.69C26.3815 22.2035 25.9549 22.63 25.4412 22.9265L25.4378 22.9285L16.6912 27.9265C16.6906 27.9269 16.6901 27.9272 16.6895 27.9275C16.1758 28.2237 15.5931 28.3797 15 28.3797C14.4069 28.3797 13.8242 28.2237 13.3104 27.9274C13.3099 27.9271 13.3093 27.9268 13.3088 27.9265L4.56223 22.9285L4.55883 22.9265C4.04515 22.63 3.6185 22.2035 3.32166 21.69C3.02483 21.1765 2.86826 20.594 2.86765 20.0008V9.999C2.86826 9.40586 3.02483 8.82331 3.32166 8.30979C3.6185 7.79627 4.04515 7.36983 4.55883 7.07327L4.56223 7.0713L13.3088 2.07327C13.3094 2.07292 13.31 2.07258 13.3106 2.07223ZM15 3.38482C14.716 3.38482 14.4371 3.45957 14.1912 3.60155L14.1878 3.60351L5.44118 8.60155C5.44068 8.60183 5.44018 8.60212 5.43968 8.60241C5.19468 8.74421 4.99117 8.94783 4.84949 9.19293C4.7076 9.43841 4.63272 9.71687 4.63235 10.0004V19.9994C4.63272 20.2829 4.7076 20.5614 4.84949 20.8069C4.99115 21.0519 5.19462 21.2555 5.43957 21.3973C5.4401 21.3976 5.44064 21.398 5.44118 21.3983L14.1912 26.3983C14.4371 26.5402 14.716 26.615 15 26.615C15.284 26.615 15.5629 26.5402 15.8088 26.3983L15.8122 26.3963L24.5588 21.3983C24.5594 21.398 24.5599 21.3976 24.5604 21.3973C24.8054 21.2555 25.0089 21.0519 25.1505 20.8069C25.2925 20.5613 25.3674 20.2827 25.3676 19.999V10.0008C25.3674 9.71714 25.2925 9.43853 25.1505 9.19293C25.0088 8.94783 24.8053 8.74422 24.5603 8.60242C24.5598 8.60213 24.5593 8.60184 24.5588 8.60155L15.8088 3.60155C15.5629 3.45958 15.284 3.38482 15 3.38482Z" fill="#6D77FA"/>
<path fill-rule="evenodd" clip-rule="evenodd" d="M8.611 4.82096C8.85479 4.39902 9.39448 4.25459 9.81642 4.49838L15 7.49334L20.1836 4.49838C20.6055 4.25459 21.1452 4.39902 21.389 4.82096C21.6328 5.24291 21.4884 5.78259 21.0664 6.02638L15.4414 9.27638C15.1683 9.43419 14.8317 9.43419 14.5586 9.27638L8.93358 6.02638C8.51163 5.78259 8.36721 5.24291 8.611 4.82096Z" fill="#6D77FA"/>
<path fill-rule="evenodd" clip-rule="evenodd" d="M2.986 14.5588C3.22979 14.1368 3.76948 13.9924 4.19142 14.2362L9.81642 17.4862C10.0893 17.6438 10.2574 17.935 10.2574 18.2502V24.7377C10.2574 25.225 9.86231 25.62 9.375 25.62C8.88769 25.62 8.49265 25.225 8.49265 24.7377V18.7594L3.30858 15.7642C2.88663 15.5204 2.74221 14.9807 2.986 14.5588Z" fill="#6D77FA"/>
<path fill-rule="evenodd" clip-rule="evenodd" d="M27.014 14.5588C27.2578 14.9807 27.1134 15.5204 26.6914 15.7642L21.5074 18.7594V24.7377C21.5074 25.225 21.1123 25.62 20.625 25.62C20.1377 25.62 19.7426 25.225 19.7426 24.7377V18.2502C19.7426 17.935 19.9107 17.6438 20.1836 17.4862L25.8086 14.2362C26.2305 13.9924 26.7702 14.1368 27.014 14.5588Z" fill="#6D77FA"/>
<path fill-rule="evenodd" clip-rule="evenodd" d="M3.32373 8.25807C3.56774 7.83625 4.1075 7.6921 4.52932 7.93611L15 13.993L25.4707 7.93611C25.8925 7.6921 26.4323 7.83625 26.6763 8.25807C26.9203 8.67989 26.7761 9.21965 26.3543 9.46365L15.4418 15.7762C15.1685 15.9343 14.8315 15.9343 14.5582 15.7762L3.64569 9.46365C3.22387 9.21965 3.07972 8.67989 3.32373 8.25807Z" fill="#6D77FA"/>
<path fill-rule="evenodd" clip-rule="evenodd" d="M15 14.1177C15.4873 14.1177 15.8824 14.5127 15.8824 15V27.6C15.8824 28.0873 15.4873 28.4824 15 28.4824C14.5127 28.4824 14.1176 28.0873 14.1176 27.6V15C14.1176 14.5127 14.5127 14.1177 15 14.1177Z" fill="#6D77FA"/>
</svg>
