<svg width="24" height="24" viewBox="0 0 24 24" fill="none" xmlns="http://www.w3.org/2000/svg">
<path d="M15.579 19.699C13.469 19.849 13.469 22.909 15.579 23.059H20.589C21.199 23.059 21.779 22.8391 22.229 22.4291C23.709 21.1391 22.919 18.539 20.969 18.299C20.269 14.079 14.159 15.679 15.609 19.699" fill="#6D77FA"/>
<path d="M15.579 19.699C13.469 19.849 13.469 22.909 15.579 23.059H20.589C21.199 23.059 21.779 22.8391 22.229 22.4291C23.709 21.1391 22.919 18.539 20.969 18.299C20.269 14.079 14.159 15.679 15.609 19.699" fill="#6D77FA"/>
<path d="M22 11.07V15.34C22 15.66 21.49 15.8 21.27 15.57C20.8 15.08 20.21 14.71 19.53 14.5C17.96 14.01 16.15 14.49 15.01 15.67C14.29 16.44 13.9 17.4 13.88 18.44C13.88 18.62 13.79 18.78 13.65 18.89C12.93 19.46 12.49 20.35 12.49 21.37V21.38C12.49 21.7 12.26 21.99 11.94 21.99H7.34C4.4 22 2 19.6 2 16.65V6.42C2 3.98 3.98 2 6.42 2H8.74C10.37 2 10.88 2.53 11.53 3.4L12.93 5.26C13.24 5.67 13.28 5.72 13.86 5.72H16.65C19.03 5.72 21.05 7.28 21.74 9.44C21.89 9.89 21.97 10.35 21.99 10.84C22 10.91 22 11 22 11.07Z" fill="#6D77FA"/>
</svg>
