<svg width="24" height="24" viewBox="0 0 24 24" fill="none" xmlns="http://www.w3.org/2000/svg">
<path d="M11.6677 16.5977C10.9677 16.5977 10.2677 16.3277 9.7377 15.7977L3.2177 9.27774C3.07822 9.13661 3 8.94617 3 8.74774C3 8.54931 3.07822 8.35888 3.2177 8.21774C3.5077 7.92774 3.9877 7.92774 4.2777 8.21774L10.7977 14.7377C11.2777 15.2177 12.0577 15.2177 12.5377 14.7377L19.0577 8.21774C19.3477 7.92774 19.8277 7.92774 20.1177 8.21774C20.4077 8.50774 20.4077 8.98774 20.1177 9.27774L13.5977 15.7977C13.0677 16.3277 12.3677 16.5977 11.6677 16.5977Z" fill="#212B36"/>
</svg>
