<svg width="20" height="20" viewBox="0 0 20 20" fill="none" xmlns="http://www.w3.org/2000/svg">
<path d="M9.58329 18.1251C4.87496 18.1251 1.04163 14.2917 1.04163 9.58341C1.04163 4.87508 4.87496 1.04175 9.58329 1.04175C14.2916 1.04175 18.125 4.87508 18.125 9.58341C18.125 14.2917 14.2916 18.1251 9.58329 18.1251ZM9.58329 2.29175C5.55829 2.29175 2.29163 5.56675 2.29163 9.58341C2.29163 13.6001 5.55829 16.8751 9.58329 16.8751C13.6083 16.8751 16.875 13.6001 16.875 9.58341C16.875 5.56675 13.6083 2.29175 9.58329 2.29175ZM18.3333 18.9592C18.175 18.9592 18.0166 18.9009 17.8916 18.7759L16.225 17.1092C16.1087 16.9916 16.0435 16.8329 16.0435 16.6676C16.0435 16.5022 16.1087 16.3435 16.225 16.2259C16.4666 15.9842 16.8666 15.9842 17.1083 16.2259L18.775 17.8926C19.0166 18.1342 19.0166 18.5342 18.775 18.7759C18.65 18.9009 18.4916 18.9592 18.3333 18.9592Z" fill="#212B36"/>
</svg>
